<svg width="16" height="16" viewBox="0 0 16 16" fill="none" xmlns="http://www.w3.org/2000/svg">
<path fill-rule="evenodd" clip-rule="evenodd" d="M2 4.75C2 4.33579 2.33579 4 2.75 4H13.25C13.6642 4 14 4.33579 14 4.75C14 5.16421 13.6642 5.5 13.25 5.5H2.75C2.33579 5.5 2 5.16421 2 4.75Z" fill="#E2F7FF"/>
<path fill-rule="evenodd" clip-rule="evenodd" d="M2 8C2 7.58579 2.33579 7.25 2.75 7.25H13.25C13.6642 7.25 14 7.58579 14 8C14 8.41421 13.6642 8.75 13.25 8.75H2.75C2.33579 8.75 2 8.41421 2 8Z" fill="#E2F7FF"/>
<path fill-rule="evenodd" clip-rule="evenodd" d="M2 11.25C2 10.8358 2.33579 10.5 2.75 10.5H13.25C13.6642 10.5 14 10.8358 14 11.25C14 11.6642 13.6642 12 13.25 12H2.75C2.33579 12 2 11.6642 2 11.25Z" fill="#E2F7FF"/>
</svg>
