<svg width="320" height="320" viewBox="0 0 320 320" fill="none" xmlns="http://www.w3.org/2000/svg">
<rect width="320" height="320" fill="white"/>
<path d="M227.129 172.417C240.471 172.417 253.203 176.364 264 183.701C261.112 196.417 255.957 208.267 248.976 218.807L247.747 217.577C242.239 212.071 234.916 209.038 227.129 209.038C219.342 209.038 212.019 212.071 206.512 217.577L206.357 217.732C193.931 230.156 177.413 237 159.841 237C142.269 237 125.75 230.157 113.325 217.732C101.956 206.365 83.4551 206.365 72.0866 217.732L71.0152 218.804C64.0406 208.276 58.8875 196.438 56 183.741C66.7612 176.475 79.4306 172.57 92.7042 172.57C110.276 172.57 126.795 179.413 139.221 191.837C150.589 203.204 169.09 203.204 180.459 191.837L180.613 191.682C193.038 179.258 209.557 172.415 227.129 172.415V172.417Z" fill="#005CAD"/>
<path d="M159.999 141.522C170.205 141.522 178.479 149.794 178.479 160C178.479 170.205 170.205 178.478 159.999 178.478C149.793 178.478 141.518 170.205 141.518 160C141.518 149.794 149.793 141.522 159.999 141.522Z" fill="#005CAD"/>
<path d="M159.841 83C177.413 83.0001 193.931 89.8427 206.357 102.267L206.512 102.422C212.019 107.928 219.342 110.961 227.129 110.961C234.916 110.961 242.239 107.928 247.747 102.422L248.976 101.192C255.957 111.732 261.115 123.585 264 136.298C253.203 143.635 240.471 147.582 227.129 147.582C209.557 147.582 193.038 140.738 180.613 128.314L180.459 128.16C169.09 116.793 150.589 116.793 139.221 128.16V128.163C126.795 140.587 110.276 147.429 92.7042 147.429C79.4335 147.429 66.7612 143.524 56 136.258C58.8875 123.558 64.0436 111.723 71.0152 101.195L72.0866 102.267C83.4551 113.634 101.956 113.634 113.325 102.267C125.75 89.8425 142.269 83 159.841 83Z" fill="#005CAD"/>
</svg>

