<svg width="13" height="14" viewBox="0 0 13 14" fill="none" xmlns="http://www.w3.org/2000/svg">
<g clip-path="url(#clip0_599_13)" filter="url(#filter0_d_599_13)" transform="translate(0, 1)">

<path d="M6.39062 2.76562C6.25387 2.76562 6.12272 2.7113 6.02602 2.6146C5.92932 2.5179 5.875 2.38675 5.875 2.25V1.125C5.875 0.988248 5.92932 0.857096 6.02602 0.760398C6.12272 0.6637 6.25387 0.609375 6.39062 0.609375C6.52738 0.609375 6.65853 0.6637 6.75523 0.760398C6.85192 0.857096 6.90625 0.988248 6.90625 1.125V2.25C6.90625 2.38675 6.85192 2.5179 6.75523 2.6146C6.65853 2.7113 6.52738 2.76562 6.39062 2.76562Z" fill="#00FFFF"/>
<path d="M6.39062 11.3906C6.25387 11.3906 6.12272 11.3363 6.02602 11.2396C5.92932 11.1429 5.875 11.0118 5.875 10.875V9.75C5.875 9.61325 5.92932 9.4821 6.02602 9.3854C6.12272 9.2887 6.25387 9.23438 6.39062 9.23438C6.52738 9.23438 6.65853 9.2887 6.75523 9.3854C6.85192 9.4821 6.90625 9.61325 6.90625 9.75V10.875C6.90625 11.0118 6.85192 11.1429 6.75523 11.2396C6.65853 11.3363 6.52738 11.3906 6.39062 11.3906Z" fill="#00FFFF"/>
<path d="M9.04234 3.86391C8.94039 3.86389 8.84072 3.83365 8.75595 3.77701C8.67117 3.72037 8.60509 3.63986 8.56606 3.54567C8.52703 3.45148 8.5168 3.34783 8.53666 3.24783C8.55653 3.14782 8.60559 3.05595 8.67766 2.98383L9.47313 2.18836C9.57025 2.09376 9.70072 2.04122 9.83629 2.04212C9.97186 2.04301 10.1016 2.09726 10.1975 2.19313C10.2934 2.289 10.3476 2.41876 10.3485 2.55434C10.3494 2.68991 10.2969 2.82038 10.2023 2.9175L9.4068 3.71297C9.35898 3.76089 9.30217 3.79889 9.23963 3.82479C9.17708 3.8507 9.11004 3.86399 9.04234 3.86391Z" fill="#00FFFF"/>
<path d="M2.94344 9.96281C2.84145 9.9628 2.74176 9.93254 2.65697 9.87587C2.57218 9.8192 2.5061 9.73865 2.46709 9.64442C2.42808 9.55019 2.41789 9.44651 2.4378 9.34649C2.45772 9.24647 2.50685 9.1546 2.57898 9.0825L3.37445 8.28703C3.4221 8.23811 3.47898 8.19915 3.54181 8.1724C3.60463 8.14564 3.67215 8.13164 3.74043 8.13119C3.80871 8.13074 3.8764 8.14385 3.93958 8.16978C4.00275 8.1957 4.06014 8.23391 4.10843 8.2822C4.15671 8.33048 4.19492 8.38788 4.22085 8.45105C4.24677 8.51422 4.25989 8.58191 4.25944 8.6502C4.25899 8.71848 4.24498 8.78599 4.21823 8.84882C4.19148 8.91164 4.15251 8.96853 4.10359 9.01617L3.30813 9.81164C3.26029 9.85962 3.20345 9.89768 3.14087 9.92362C3.07828 9.94956 3.01119 9.96288 2.94344 9.96281Z" fill="#00FFFF"/>
<path d="M11.2656 6.51562H10.1406C10.0039 6.51562 9.87272 6.4613 9.77602 6.3646C9.67933 6.2679 9.625 6.13675 9.625 6C9.625 5.86325 9.67933 5.7321 9.77602 5.6354C9.87272 5.5387 10.0039 5.48438 10.1406 5.48438H11.2656C11.4024 5.48438 11.5335 5.5387 11.6302 5.6354C11.7269 5.7321 11.7812 5.86325 11.7812 6C11.7812 6.13675 11.7269 6.2679 11.6302 6.3646C11.5335 6.4613 11.4024 6.51562 11.2656 6.51562Z" fill="#00FFFF"/>
<path d="M2.64062 6.51562H1.51562C1.37887 6.51562 1.24772 6.4613 1.15102 6.3646C1.05432 6.2679 1 6.13675 1 6C1 5.86325 1.05432 5.7321 1.15102 5.6354C1.24772 5.5387 1.37887 5.48438 1.51562 5.48438H2.64062C2.77738 5.48438 2.90853 5.5387 3.00523 5.6354C3.10193 5.7321 3.15625 5.86325 3.15625 6C3.15625 6.13675 3.10193 6.2679 3.00523 6.3646C2.90853 6.4613 2.77738 6.51562 2.64062 6.51562Z" fill="#00FFFF"/>
<path d="M9.83781 9.96281C9.77006 9.96288 9.70297 9.94956 9.64038 9.92362C9.5778 9.89768 9.52096 9.85962 9.47312 9.81164L8.67766 9.01617C8.58306 8.91905 8.53052 8.78858 8.53141 8.65301C8.53231 8.51744 8.58656 8.38767 8.68243 8.2918C8.77829 8.19593 8.90806 8.14168 9.04363 8.14079C9.17921 8.1399 9.30968 8.19244 9.4068 8.28703L10.2023 9.0825C10.2744 9.1546 10.3235 9.24647 10.3434 9.34649C10.3634 9.44651 10.3532 9.55019 10.3142 9.64442C10.2751 9.73865 10.2091 9.8192 10.1243 9.87587C10.0395 9.93254 9.9398 9.9628 9.83781 9.96281Z" fill="#00FFFF"/>
<path d="M3.73891 3.86391C3.6712 3.86404 3.60414 3.85077 3.54159 3.82486C3.47904 3.79896 3.42224 3.76093 3.37445 3.71297L2.57898 2.9175C2.48439 2.82038 2.43185 2.68991 2.43274 2.55434C2.43364 2.41876 2.48789 2.289 2.58375 2.19313C2.67962 2.09726 2.80939 2.04301 2.94496 2.04212C3.08053 2.04122 3.211 2.09376 3.30813 2.18836L4.10359 2.98383C4.17566 3.05595 4.22472 3.14782 4.24459 3.24783C4.26445 3.34783 4.25422 3.45148 4.21519 3.54567C4.17616 3.63986 4.11008 3.72037 4.0253 3.77701C3.94053 3.83365 3.84086 3.86389 3.73891 3.86391Z" fill="#00FFFF"/>
<path d="M6.39062 8.39062C5.9178 8.39062 5.4556 8.25042 5.06246 7.98773C4.66933 7.72505 4.36292 7.35168 4.18198 6.91485C4.00103 6.47802 3.95369 5.99735 4.04594 5.53361C4.13818 5.06988 4.36586 4.64391 4.7002 4.30957C5.03453 3.97524 5.4605 3.74755 5.92424 3.65531C6.38797 3.56307 6.86865 3.61041 7.30548 3.79135C7.74231 3.97229 8.11567 4.2787 8.37836 4.67184C8.64104 5.06498 8.78125 5.52718 8.78125 6C8.78051 6.6338 8.5284 7.24144 8.08023 7.6896C7.63206 8.13777 7.02443 8.38988 6.39062 8.39062Z" fill="#00FFFF"/>
</g>
<defs>
<filter id="filter0_d_599_13" x="-0.609375" y="0" width="14" height="14" filterUnits="userSpaceOnUse" color-interpolation-filters="sRGB">
<feFlood flood-opacity="0" result="BackgroundImageFix"/>
<feColorMatrix in="SourceAlpha" type="matrix" values="0 0 0 0 0 0 0 0 0 0 0 0 0 0 0 0 0 0 127 0" result="hardAlpha"/>
<feOffset dy="1"/>
<feGaussianBlur stdDeviation="0.5"/>
<feColorMatrix type="matrix" values="0 0 0 0 0 0 0 0 0 0 0 0 0 0 0 0 0 0 0.15 0"/>
<feBlend mode="normal" in2="BackgroundImageFix" result="effect1_dropShadow_599_13"/>
<feBlend mode="normal" in="SourceGraphic" in2="effect1_dropShadow_599_13" result="shape"/>
</filter>
<clipPath id="clip0_599_13">
<rect width="12" height="12" fill="white" transform="translate(0.390625)"/>
</clipPath>
</defs>
</svg>
