<svg width="40" height="40" viewBox="0 0 40 40" fill="none" xmlns="http://www.w3.org/2000/svg">
<path d="M28.3911 21.5522C30.0589 21.5522 31.6504 22.0455 33 22.9627C32.6391 24.5521 31.9946 26.0334 31.122 27.3508L30.9683 27.1972C30.2799 26.5089 29.3645 26.1297 28.3911 26.1297C27.4177 26.1297 26.5023 26.5089 25.8139 27.1972L25.7946 27.2166C24.2414 28.7696 22.1766 29.625 19.9801 29.625C17.7836 29.625 15.7187 28.7696 14.1656 27.2166C12.7445 25.7957 10.4319 25.7956 9.01083 27.2166L8.87691 27.3505C8.00508 26.0345 7.36094 24.5548 7 22.9676C8.34515 22.0594 9.92882 21.5712 11.588 21.5712C13.7845 21.5712 15.8494 22.4266 17.4026 23.9796C18.8236 25.4005 21.1363 25.4005 22.5573 23.9796L22.5766 23.9603C24.1297 22.4072 26.1946 21.5518 28.3911 21.5518V21.5522Z" fill="#00FFFF"/>
<path d="M19.9999 17.6902C21.2756 17.6902 22.3098 18.7243 22.3098 19.9999C22.3098 21.2756 21.2756 22.3098 19.9999 22.3098C18.7241 22.3098 17.6898 21.2756 17.6898 19.9999C17.6898 18.7243 18.7241 17.6902 19.9999 17.6902Z" fill="#00FFFF"/>
<path d="M19.9801 10.375C22.1766 10.375 24.2414 11.2303 25.7946 12.7833L25.8139 12.8027C26.5023 13.491 27.4177 13.8702 28.3911 13.8702C29.3645 13.8702 30.2799 13.491 30.9683 12.8027L31.122 12.649C31.9946 13.9665 32.6394 15.4481 33 17.0372C31.6504 17.9543 30.0589 18.4477 28.3911 18.4477C26.1946 18.4477 24.1297 17.5923 22.5766 16.0393L22.5573 16.02C21.1363 14.5991 18.8236 14.5991 17.4026 16.02V16.0204C15.8494 17.5734 13.7845 18.4287 11.588 18.4287C9.92919 18.4287 8.34515 17.9405 7 17.0323C7.36094 15.4447 8.00545 13.9654 8.87691 12.6494L9.01083 12.7833C10.4319 14.2042 12.7445 14.2042 14.1656 12.7833C15.7187 11.2303 17.7836 10.375 19.9801 10.375Z" fill="#00FFFF"/>
</svg>
